<svg xmlns="http://www.w3.org/2000/svg" width="700" height="700" viewBox="0 0 700 700" fill="none">
    <g clip-path="url(#clip0_1_3)">
        <path d="M550 0H150C67.1573 0 0 67.1573 0 150V550C0 632.843 67.1573 700 150 700H550C632.843 700 700 632.843 700 550V150C700 67.1573 632.843 0 550 0Z" fill="url(#paint0_radial_1_3)"/>
        <path d="M550 0H150C67.1573 0 0 67.1573 0 150V550C0 632.843 67.1573 700 150 700H550C632.843 700 700 632.843 700 550V150C700 67.1573 632.843 0 550 0Z" fill="url(#paint1_radial_1_3)"/>
        <path d="M550 0H150C67.1573 0 0 67.1573 0 150V550C0 632.843 67.1573 700 150 700H550C632.843 700 700 632.843 700 550V150C700 67.1573 632.843 0 550 0Z" fill="url(#paint2_radial_1_3)"/>
        <path d="M525 212.5C525 233.21 508.21 250 487.5 250C466.79 250 450 233.21 450 212.5C450 191.789 466.79 175 487.5 175C508.21 175 525 191.789 525 212.5Z" fill="white"/>
        <path fill-rule="evenodd" clip-rule="evenodd" d="M350 475C419.035 475 475 419.035 475 350C475 280.965 419.035 225 350 225C280.965 225 225 280.965 225 350C225 419.035 280.965 475 350 475ZM350 425C391.423 425 425 391.423 425 350C425 308.577 391.423 275 350 275C308.577 275 275 308.577 275 350C275 391.423 308.577 425 350 425Z" fill="white"/>
        <path fill-rule="evenodd" clip-rule="evenodd" d="M100 340C100 255.993 100 213.988 116.349 181.902C130.73 153.677 153.677 130.73 181.902 116.349C213.988 100 255.993 100 340 100H360C444.007 100 486.012 100 518.097 116.349C546.322 130.73 569.27 153.677 583.65 181.902C600 213.988 600 255.993 600 340V360C600 444.007 600 486.012 583.65 518.097C569.27 546.322 546.322 569.27 518.097 583.65C486.012 600 444.007 600 360 600H340C255.993 600 213.988 600 181.902 583.65C153.677 569.27 130.73 546.322 116.349 518.097C100 486.012 100 444.007 100 360V340ZM340 150H360C402.83 150 431.943 150.039 454.448 151.877C476.37 153.668 487.58 156.915 495.4 160.899C514.215 170.487 529.512 185.785 539.1 204.6C543.085 212.42 546.333 223.63 548.123 245.552C549.96 268.057 550 297.17 550 340V360C550 402.83 549.96 431.943 548.123 454.448C546.333 476.37 543.085 487.58 539.1 495.4C529.512 514.215 514.215 529.512 495.4 539.1C487.58 543.085 476.37 546.333 454.448 548.123C431.943 549.96 402.83 550 360 550H340C297.17 550 268.057 549.96 245.552 548.123C223.63 546.333 212.42 543.085 204.6 539.1C185.785 529.512 170.487 514.215 160.899 495.4C156.915 487.58 153.668 476.37 151.877 454.448C150.039 431.943 150 402.83 150 360V340C150 297.17 150.039 268.057 151.877 245.552C153.668 223.63 156.915 212.42 160.899 204.6C170.487 185.785 185.785 170.487 204.6 160.899C212.42 156.915 223.63 153.668 245.552 151.877C268.057 150.039 297.17 150 340 150Z" fill="white"/>
    </g>
    <defs>
        <radialGradient id="paint0_radial_1_3" cx="0" cy="0" r="1" gradientUnits="userSpaceOnUse" gradientTransform="translate(250 525) rotate(-55.3758) scale(637.99)">
            <stop stop-color="#B13589"/>
            <stop offset="0.79309" stop-color="#C62F94"/>
            <stop offset="1" stop-color="#8A3AC8"/>
        </radialGradient>
        <radialGradient id="paint1_radial_1_3" cx="0" cy="0" r="1" gradientUnits="userSpaceOnUse" gradientTransform="translate(225 725) rotate(-65.1363) scale(564.855)">
            <stop stop-color="#E0E8B7"/>
            <stop offset="0.444662" stop-color="#FB8A2E"/>
            <stop offset="0.71474" stop-color="#E2425C"/>
            <stop offset="1" stop-color="#E2425C" stop-opacity="0"/>
        </radialGradient>
        <radialGradient id="paint2_radial_1_3" cx="0" cy="0" r="1" gradientUnits="userSpaceOnUse" gradientTransform="translate(-37.5 25) rotate(-8.1301) scale(972.273 207.959)">
            <stop offset="0.156701" stop-color="#406ADC"/>
            <stop offset="0.467799" stop-color="#6A45BE"/>
            <stop offset="1" stop-color="#6A45BE" stop-opacity="0"/>
        </radialGradient>
            <clipPath id="clip0_1_3">
            <rect width="700" height="700" fill="white"/>
        </clipPath>
    </defs>
</svg>